# xmcd CD database file
#
# Track frame offsets:
#	150
#	24537
#	51907
#
# Disc length: 1015 seconds
#
# Revision: 0
# Processed by: cddbd v1.5.1PL2 Copyright (c) Steve Scherf et al.
# Submitted via: CDex 1.51
#
DISCID=1f03f503
DTITLE=時任三郎 - そして、夜を抱きしめて〜ＴＢＳ系金曜ドラマ「わたしってブスだったの？」挿入歌〜
DYEAR=1900
DGENRE=JPop
TTITLE0=そして、夜を抱きしめて
TTITLE1=それが僕の愛し方
TTITLE2=そして、夜を抱きしめて（オリジナル・カラオケ）
EXTD=
EXTT0=
EXTT1=
EXTT2=
PLAYORDER=
